<?xml version="1.0" encoding="UTF-8"?> <!-- Generator: Adobe Illustrator 24.1.2, SVG Export Plug-In . SVG Version: 6.00 Build 0) --> <svg xmlns="http://www.w3.org/2000/svg" xmlns:xlink="http://www.w3.org/1999/xlink" version="1.1" id="Layer_1" x="0px" y="0px" viewBox="0 0 271.93 85.58" style="enable-background:new 0 0 271.93 85.58;" xml:space="preserve"> <style type="text/css"> .st0{fill:#00467F;} .st1{fill:#003E6B;} .st2{fill:#FFFFFF;} </style> <g> <g> <path class="st0" d="M94.8,40.63V28.78h2.94c2.71,0,3.94,0.89,3.94,3.09c0,1.24-0.54,2.06-1.53,2.51v0.03 c1.34,0.48,1.82,1.48,1.82,2.82c0,2.74-1.77,3.4-4.08,3.4H94.8z M97.8,33.7c1.01,0,1.9-0.36,1.9-1.67c0-1.27-0.94-1.5-1.9-1.5 h-1.09v3.17H97.8z M98,38.88c1.37,0,1.96-0.48,1.96-1.77c0-1.29-0.66-1.82-1.95-1.82h-1.3v3.58H98z"></path> <path class="st0" d="M109.05,40.63l-1.7-4.88h-1.5v4.88h-1.96V28.78h3.13c2.54,0,3.76,0.97,3.76,3.28c0,1.5-0.64,2.43-1.67,2.89 l2.06,5.68H109.05z M106.97,34.08c0.89,0,1.82-0.31,1.82-1.83c0-1.67-0.94-1.77-1.83-1.77h-1.1v3.6H106.97z"></path> <path class="st0" d="M112.84,40.63V28.78h1.96v11.85H112.84z"></path> <path class="st0" d="M118.84,40.63V30.56h-2.44v-1.78h6.83v1.78h-2.44v10.07H118.84z"></path> <path class="st0" d="M124.83,40.63V28.78h1.96v11.85H124.83z"></path> <path class="st0" d="M133.51,31.91c-0.25-1.01-0.68-1.63-1.6-1.63c-0.83,0-1.34,0.46-1.34,1.22c0,2.48,4.85,2.18,4.85,6.06 c0,2.06-1.35,3.22-3.47,3.22s-3.1-1.02-3.48-3.15l1.82-0.31c0.23,1.2,0.68,1.82,1.73,1.82c0.89,0,1.5-0.49,1.5-1.42 c0-2.61-4.8-2.29-4.8-6.09c0-1.83,1.2-2.99,3.17-2.99c2.06,0,2.99,1.15,3.32,2.95L133.51,31.91z"></path> <path class="st0" d="M142.56,40.63v-5.25h-3.37v5.25h-1.96V28.78h1.96v4.83h3.37v-4.83h1.93v11.85H142.56z"></path> <path class="st0" d="M156.76,36.77c-0.36,2.64-1.47,4.01-3.63,4.01c-2.84,0-3.76-2.31-3.76-6.12c0-3.42,0.99-6.02,3.8-6.02 c2.28,0,3.18,1.42,3.48,3.83l-1.82,0.16c-0.25-1.5-0.76-2.24-1.63-2.24c-1.2,0-1.83,1.27-1.83,4.27c0,3.28,0.54,4.39,1.82,4.39 c0.94,0,1.5-0.84,1.75-2.46L156.76,36.77z"></path> <path class="st0" d="M158.18,34.7c0-3.93,1.14-6.07,3.91-6.07c2.77,0,3.93,2.14,3.93,6.07c0,3.89-1.2,6.07-3.93,6.07 C159.37,40.78,158.18,38.6,158.18,34.7z M164.03,34.7c0-3.08-0.64-4.37-1.93-4.37c-1.27,0-1.91,1.29-1.91,4.37 c0,3.2,0.69,4.39,1.91,4.39C163.35,39.09,164.03,37.9,164.03,34.7z"></path> <path class="st0" d="M167.95,40.63V28.78h1.96v10.07h3.96v1.78H167.95z"></path> <path class="st0" d="M180.58,28.78h1.93v8.07c0,2.56-1.12,3.91-3.68,3.91c-2.54,0-3.56-1.35-3.56-3.91v-8.07h1.96v8.33 c0,1.37,0.51,1.96,1.63,1.96c1.1,0,1.72-0.59,1.72-1.96V28.78z"></path> <path class="st0" d="M192.28,40.63v-8.71h-0.03l-2.13,8.71h-1.39l-2.18-8.71h-0.03v8.71h-1.72V28.78h2.66l1.93,7.95h0.03 l2.01-7.95h2.59v11.85H192.28z"></path> <path class="st0" d="M196.38,40.63V28.78h2.94c2.71,0,3.94,0.89,3.94,3.09c0,1.24-0.54,2.06-1.53,2.51v0.03 c1.34,0.48,1.82,1.48,1.82,2.82c0,2.74-1.77,3.4-4.08,3.4H196.38z M199.38,33.7c1.01,0,1.9-0.36,1.9-1.67c0-1.27-0.94-1.5-1.9-1.5 h-1.09v3.17H199.38z M199.58,38.88c1.37,0,1.96-0.48,1.96-1.77c0-1.29-0.66-1.82-1.95-1.82h-1.3v3.58H199.58z"></path> <path class="st0" d="M205.48,40.63V28.78h1.96v11.85H205.48z"></path> <path class="st0" d="M215.08,40.63l-0.63-3.04h-2.84l-0.61,3.04h-1.98l2.69-11.85h2.62l2.76,11.85H215.08z M211.96,35.86h2.14 l-1.06-5.17H213L211.96,35.86z"></path> <path class="st0" d="M94.8,56.5V44.66h1.96V56.5H94.8z"></path> <path class="st0" d="M104.65,56.5l-3.78-8.19h-0.03v8.19h-1.75V44.66h2.26l3.25,7.19h0.03v-7.19h1.78V56.5H104.65z"></path> <path class="st0" d="M113.1,47.79c-0.25-1.01-0.68-1.63-1.6-1.63c-0.83,0-1.34,0.46-1.34,1.22c0,2.48,4.85,2.18,4.85,6.06 c0,2.06-1.35,3.22-3.47,3.22c-2.11,0-3.1-1.02-3.48-3.15l1.82-0.31c0.23,1.2,0.68,1.82,1.73,1.82c0.89,0,1.5-0.49,1.5-1.42 c0-2.61-4.8-2.29-4.8-6.09c0-1.83,1.2-2.99,3.17-2.99c2.06,0,2.99,1.15,3.32,2.95L113.1,47.79z"></path> <path class="st0" d="M118.58,56.5V46.44h-2.44v-1.78h6.83v1.78h-2.44V56.5H118.58z"></path> <path class="st0" d="M124.57,56.5V44.66h1.96V56.5H124.57z"></path> <path class="st0" d="M130.57,56.5V46.44h-2.44v-1.78h6.83v1.78h-2.44V56.5H130.57z"></path> <path class="st0" d="M141.84,44.66h1.93v8.07c0,2.56-1.12,3.91-3.68,3.91c-2.54,0-3.56-1.35-3.56-3.91v-8.07h1.96v8.33 c0,1.37,0.51,1.96,1.63,1.96c1.1,0,1.72-0.59,1.72-1.96V44.66z"></path> <path class="st0" d="M147.79,56.5V46.44h-2.44v-1.78h6.83v1.78h-2.44V56.5H147.79z"></path> <path class="st0" d="M153.78,56.5V44.66h6.06v1.78h-4.09v3.08h3.05v1.72h-3.05v3.48h4.31v1.78H153.78z"></path> <path class="st0" d="M164.25,50.58c0-3.93,1.14-6.07,3.91-6.07c2.77,0,3.93,2.14,3.93,6.07c0,3.89-1.2,6.07-3.93,6.07 C165.44,56.65,164.25,54.47,164.25,50.58z M170.09,50.58c0-3.08-0.64-4.37-1.93-4.37c-1.27,0-1.91,1.29-1.91,4.37 c0,3.2,0.69,4.39,1.91,4.39C169.42,54.97,170.09,53.78,170.09,50.58z"></path> <path class="st0" d="M174.02,56.5V44.66h6.15v1.78h-4.19v3.08h3.12v1.72h-3.12v5.26H174.02z"></path> <path class="st0" d="M186.32,56.5V46.44h-2.44v-1.78h6.83v1.78h-2.44V56.5H186.32z"></path> <path class="st0" d="M192.32,56.5V44.66h6.06v1.78h-4.09v3.08h3.05v1.72h-3.05v3.48h4.31v1.78H192.32z"></path> <path class="st0" d="M207.14,52.64c-0.36,2.64-1.47,4.01-3.63,4.01c-2.84,0-3.76-2.31-3.76-6.12c0-3.42,0.99-6.02,3.8-6.02 c2.28,0,3.18,1.42,3.48,3.83l-1.82,0.16c-0.25-1.5-0.76-2.24-1.63-2.24c-1.2,0-1.83,1.27-1.83,4.27c0,3.28,0.54,4.39,1.82,4.39 c0.94,0,1.5-0.84,1.75-2.46L207.14,52.64z"></path> <path class="st0" d="M214.22,56.5v-5.25h-3.37v5.25h-1.96V44.66h1.96v4.83h3.37v-4.83h1.93V56.5H214.22z"></path> <path class="st0" d="M224.05,56.5l-3.78-8.19h-0.03v8.19h-1.75V44.66h2.26l3.25,7.19h0.03v-7.19h1.78V56.5H224.05z"></path> <path class="st0" d="M227.75,50.58c0-3.93,1.14-6.07,3.91-6.07c2.77,0,3.93,2.14,3.93,6.07c0,3.89-1.2,6.07-3.93,6.07 C228.93,56.65,227.75,54.47,227.75,50.58z M233.59,50.58c0-3.08-0.64-4.37-1.93-4.37c-1.27,0-1.91,1.29-1.91,4.37 c0,3.2,0.69,4.39,1.91,4.39C232.91,54.97,233.59,53.78,233.59,50.58z"></path> <path class="st0" d="M237.51,56.5V44.66h1.96v10.07h3.96v1.78H237.51z"></path> <path class="st0" d="M244.42,50.58c0-3.93,1.14-6.07,3.91-6.07c2.77,0,3.93,2.14,3.93,6.07c0,3.89-1.21,6.07-3.93,6.07 C245.61,56.65,244.42,54.47,244.42,50.58z M250.26,50.58c0-3.08-0.64-4.37-1.93-4.37c-1.27,0-1.91,1.29-1.91,4.37 c0,3.2,0.69,4.39,1.91,4.39C249.58,54.97,250.26,53.78,250.26,50.58z"></path> <path class="st0" d="M259.64,56.5v-0.96h-0.03c-0.63,0.81-1.4,1.11-2.36,1.11c-2.28,0-3.47-1.73-3.47-6.09 c0-3.5,1.06-6.06,3.89-6.06c2.33,0,3.22,1.53,3.52,3.8l-1.82,0.16c-0.25-1.42-0.76-2.19-1.7-2.19c-1.25,0-1.9,1.22-1.9,4.29 c0,3.1,0.49,4.39,1.93,4.39c1.12,0,1.72-0.89,1.72-2.16c0-0.18,0-0.4-0.02-0.59h-1.73v-1.58h3.55v5.89H259.64z"></path> <path class="st0" d="M264.98,56.5v-4.79l-2.92-7.06h2.08l1.8,4.82h0.03l1.9-4.82h2.05l-2.97,7.06v4.79H264.98z"></path> </g> <g> <g> <g> <g> <rect x="2.1" y="2.49" class="st1" width="81.34" height="81.34"></rect> </g> </g> <g> <g> <path class="st2" d="M10.34,56.65V28.64h6.94c6.4,0,9.32,2.11,9.32,7.29c0,2.93-1.29,4.88-3.63,5.93v0.08 c3.16,1.13,4.29,3.51,4.29,6.67c0,6.47-4.17,8.04-9.63,8.04H10.34z M17.44,40.26c2.38,0,4.49-0.86,4.49-3.94 c0-3-2.22-3.55-4.49-3.55h-2.57v7.49H17.44z M17.91,52.51c3.24,0,4.64-1.13,4.64-4.17c0-3.04-1.56-4.29-4.6-4.29h-3.08v8.46 H17.91z"></path> </g> <g> <path class="st2" d="M47.58,47.52C46.72,53.76,44.1,57,38.99,57c-6.71,0-8.89-5.46-8.89-14.47c0-8.07,2.34-14.24,8.97-14.24 c5.38,0,7.53,3.35,8.23,9.05l-4.29,0.39c-0.58-3.55-1.79-5.3-3.86-5.3c-2.85,0-4.33,3-4.33,10.1c0,7.76,1.29,10.38,4.29,10.38 c2.22,0,3.55-1.99,4.13-5.81L47.58,47.52z"></path> </g> <g> <path class="st2" d="M51.52,56.65V28.64h4.64v28.01H51.52z"></path> </g> <g> <path class="st2" d="M65.73,56.65V32.85h-5.77v-4.21h16.15v4.21h-5.77v23.79H65.73z"></path> </g> </g> </g> <g> <path class="st1" d="M85.38,9.32v-4.9h-1.19V3.41h3.49v1.02H86.5v4.9H85.38z M92.12,9.32v-4.1h-0.03l-0.92,4.1h-0.86l-0.96-4.1 h-0.03v4.1H88.3V3.41h1.55L90.7,7.1h0.03l0.91-3.69h1.5v5.92H92.12z"></path> </g> </g> </g> </svg> 