<?xml version="1.0" encoding="UTF-8"?> <!-- Generator: Adobe Illustrator 24.1.2, SVG Export Plug-In . SVG Version: 6.00 Build 0) --> <svg xmlns="http://www.w3.org/2000/svg" xmlns:xlink="http://www.w3.org/1999/xlink" version="1.1" id="Layer_1" x="0px" y="0px" viewBox="0 0 271.93 78.27" style="enable-background:new 0 0 271.93 78.27;" xml:space="preserve"> <style type="text/css"> .st0{fill:#EE3124;} .st1{fill:#BCBEC0;} .st2{fill:#B12216;} .st3{fill:#702784;} .st4{fill:#0072BC;} .st5{fill:#AE132A;} .st6{fill:#00AAE7;} .st7{fill:#A7A9AC;} .st8{fill:#004B80;} .st9{fill:#790012;} .st10{fill:#551365;} .st11{fill:#0081B0;} .st12{fill:#4C095A;} .st13{fill:#9E1C0F;} .st14{fill:#00558F;} .st15{fill:#860319;} </style> <g> <path class="st0" d="M109.2,73.07c-7.25,0-14.88-1.6-20.25-4.05l2.36-10.93c5.75,1.79,11.58,3.01,18.08,3.01 c7.25,0,8.66-1.41,8.66-6.69c0-5.65-0.28-6.31-10.55-8.57c-15.16-3.3-17.42-6.31-17.42-19.87c0-12.53,4.43-17.52,21.66-17.52 c5.46,0,12.06,0.57,19.03,2.07l-1.41,11.87c-7.16-1.22-11.77-1.79-17.43-1.79c-6.31,0-7.72,1.13-7.72,5.75 c0,6.03,0.28,6.12,10.17,8.48c16.95,4.05,17.8,7.35,17.8,19.68C132.18,66.95,128.13,73.07,109.2,73.07"></path> <rect x="199.87" y="9.4" class="st0" width="14.13" height="62.73"></rect> <polygon class="st0" points="251.72,21.93 251.72,72.13 237.59,72.13 237.59,21.93 220.73,21.93 220.73,9.4 268.58,9.4 268.58,21.93 "></polygon> <path class="st0" d="M164.78,48.21c-2.76,0.68-5.85,2.22-8.67,3.9l8.33-30.27l7.08,25.55C169.32,47.38,167.03,47.65,164.78,48.21 M193.08,72.13L173.86,9.4h-18.84l-19.12,62.73h11.22h3.48c2.68-2.34,6.55-6.15,10.47-8.29c5.79-3.15,10.65-3.61,14.12-3.24 l3.2,11.53H193.08z"></path> <path class="st1" d="M171.5,47.38c-0.85,0-1.71,0.04-2.58,0.13c0.86-0.08,1.71-0.12,2.55-0.12c0.02,0,0.04,0,0.05,0l0-0.01H171.5"></path> <path class="st2" d="M171.52,47.38L171.52,47.38c-0.02,0.01-0.03,0.01-0.05,0.01c-0.84,0-1.69,0.04-2.55,0.12 c-0.48,0.05-0.97,0.11-1.45,0.18l7.68,12.69l-3.6-13C171.54,47.38,171.53,47.38,171.52,47.38"></path> <path class="st3" d="M22.33,44.39c-5.64-2.65-12-4.51-14.41-5.8c-1.44-0.77-1.88-3.33-1.12-5.61c1.22-3.68,3.42-5.69,4.91-5.69 c1,0,1.5,0.85,1.5,0.85s1.72-6.77,1.92-7.54c-4.22,0-8.64,5.15-11.14,12.64C1.74,40.02,2.21,43.5,4.78,45.86 c2.57,2.36,9.68,5.35,12.87,6.75c5.27,2.33,6.74,4.43,7.44,6.6c0.7,2.2,0.34,5.41-1.53,7.04c3.08-2.41,5.77-7.74,8.97-12.67 c0.08-0.13,0.17-0.26,0.25-0.38C30.94,50.23,27.16,46.67,22.33,44.39"></path> <path class="st4" d="M58.49,32.91c-4.2-5.09-7.39-8.45-7.39-12.22c0-2.94,2.13-4.83,4.32-5.48c-3.42,0.56-8.19,2.01-12.16,3.29 c-0.46,0.15-0.94,0.31-1.44,0.48L41.81,19c-0.25,0.85-0.41,1.79-0.41,2.85c0,5.18,5.25,11.64,8.59,16.13 c3.34,4.49,10.46,12.11,10.46,17.54c0,4.94-3.36,7.7-7.52,7.7c-6.77,0-7.95-7.77-7.95-7.77l-6.63,9.47c0,0,5.76,8.13,14.69,8.13 c9.94,0,17.66-8.44,17.66-17.66C70.69,46.84,62.68,38.01,58.49,32.91"></path> <path class="st5" d="M57.45,8.36c-3.8,0-9.61,1.77-14.64,3.27c-4.95,1.48-11.89,4.08-15.17,4.08c-2.32,0-2.98-1.79-2.35-3.27 c-0.9,1.91-1.86,6.1-2.71,10.24c0.93,0.34,2.41,0.65,3.76,0.65c3.88,0,11.87-3.19,16.91-4.82c5.04-1.63,11.4-3.53,14.61-3.53 c3.2,0,7.33,2.28,7.33,6.5c0,4.64-4.1,5.75-6.39,5.75c-1.62,0-3.13-0.25-3.13-0.25l7.86,9.48c0,0,10.79-3.84,10.79-13.15 C74.33,14.53,65.81,8.36,57.45,8.36"></path> <path class="st6" d="M44.86,9.37c0,0-0.04-6.01-6.47-6.01c-10.53,0-16.6,6.14-18.93,10.44c-2.25,4.14-3.72,10.87-4.7,14.8 c-1.16,4.62-2.9,10.74-6.61,10.1l0.02,0.01c1.71,0.85,5,1.94,8.61,3.34c1.65-2.6,3.24-6.69,4.07-10.58 c0.96-4.55,2.82-15.58,4.45-19.04c1.63-3.46,5.21-5.07,8.1-5.07c4.59,0,2.09,4.92,2.09,4.92L44.86,9.37z"></path> <path class="st0" d="M59.61,51.88L59.61,51.88c-0.11-0.26-0.22-0.52-0.34-0.78c-0.09-0.19-0.18-0.38-0.28-0.57 c-2.24-4.44-6.52-9.23-8.94-12.46c-7.82,0.69-13.22,8.89-17.53,15.51c-4.31,6.62-7.7,13.99-12.34,13.99 c-2.89,0-6.21-3.39-6.21-7.98c0-4.35,3.48-5.32,3.48-5.32l-7.32-3.33c0,0-2.03,2.31-2.03,7.87c0,8.05,6.67,17.4,14.66,17.4 c8.1,0,11.45-8.13,15.67-14.32c5.95-8.75,9.59-14,14.82-14C55.09,47.89,58.23,49.05,59.61,51.88z"></path> <path class="st7" d="M55.41,15.21c-0.67,0.2-1.33,0.5-1.92,0.92c0,0,0.01-0.01,0.01-0.01c0.15-0.1,0.3-0.2,0.46-0.29l0.04-0.02 c0.14-0.08,0.27-0.15,0.41-0.22l0.06-0.03h0c0.12-0.06,0.24-0.11,0.35-0.15l0.11-0.04C55.1,15.31,55.26,15.26,55.41,15.21 L55.41,15.21z M48.94,16.76c-0.06,0.02-0.13,0.04-0.19,0.06h0C48.81,16.79,48.87,16.78,48.94,16.76 M43.26,18.5L43.26,18.5 c-0.46,0.15-0.94,0.31-1.44,0.48L41.81,19c0,0.01,0,0.01-0.01,0.02c0-0.01,0-0.01,0.01-0.02l0.01-0.02 C42.32,18.81,42.8,18.65,43.26,18.5"></path> <path class="st8" d="M55.42,15.21c-0.86,0.14-1.79,0.34-2.78,0.57l-0.11,0.03c-1.15,0.27-2.36,0.6-3.58,0.95 c-0.06,0.02-0.13,0.04-0.19,0.06l-0.09,0.03c-0.49,0.14-0.99,0.29-1.48,0.44c-0.17,0.05-0.33,0.1-0.5,0.15 c-0.5,0.15-1.01,0.31-1.5,0.46c-0.21,0.07-0.42,0.13-0.62,0.2c-0.42,0.13-0.84,0.27-1.25,0.4c0,0-0.01,0-0.01,0 c-0.01,0-0.02,0.01-0.04,0.01c-0.46,0.15-0.94,0.31-1.44,0.48L41.81,19c0,0.01,0,0.01-0.01,0.02c-0.23,0.76-0.37,1.6-0.4,2.54 c2.9-1.24,8.66-3.77,12.09-5.42C54.09,15.72,54.75,15.41,55.42,15.21L55.42,15.21z"></path> <polyline class="st9" points="43.3,18.49 43.29,18.49 43.3,18.49 "></polyline> <path class="st1" d="M8.15,38.71L8.15,38.71c0.08,0.01,0.16,0.02,0.24,0.03C8.24,38.72,8.16,38.71,8.15,38.71 M8.15,38.71 L8.15,38.71l0.01,0.01L8.15,38.71z M8.94,39.07c0.11,0.05,0.22,0.1,0.34,0.15c0.05,0.02,0.11,0.04,0.16,0.07c0,0,0,0,0.01,0 c0,0,0,0,0,0c0.11,0.05,0.22,0.09,0.34,0.14C9.49,39.31,9.21,39.19,8.94,39.07 M9.79,39.43C9.8,39.43,9.8,39.43,9.79,39.43 C9.8,39.43,9.8,39.43,9.79,39.43"></path> <path class="st10" d="M9.44,39.29C9.45,39.29,9.45,39.29,9.44,39.29C9.45,39.29,9.45,39.29,9.44,39.29 M9.45,39.29 c0.09,0.04,0.18,0.07,0.27,0.11c0.04,0.01,0.07,0.03,0.11,0.04c-0.01,0-0.02-0.01-0.03-0.01c0,0-0.01,0-0.01,0c0,0,0,0,0,0 C9.67,39.38,9.56,39.33,9.45,39.29 M13.28,40.74c0.08,0.03,0.16,0.06,0.24,0.09c0.13,0.05,0.26,0.1,0.4,0.15 C13.7,40.9,13.49,40.82,13.28,40.74 M14.47,41.18c0.1,0.04,0.2,0.07,0.3,0.11C14.67,41.26,14.57,41.22,14.47,41.18 M15.4,41.53 c0.01,0,0.02,0.01,0.03,0.01v0C15.42,41.54,15.41,41.53,15.4,41.53"></path> <path class="st11" d="M8.15,38.7L8.15,38.7l0.02,0.01l0.06,0.03l0.05,0.02l0.06,0.03c0.08,0.04,0.16,0.08,0.25,0.12 c0.1,0.04,0.19,0.09,0.3,0.13c0.02,0.01,0.04,0.02,0.07,0.03c0.26,0.11,0.55,0.23,0.85,0.35c0,0,0,0,0,0c0,0,0,0,0.01,0 c0.01,0,0.02,0.01,0.03,0.01c0.11,0.04,0.22,0.09,0.34,0.13l0.16,0.06c0.09,0.03,0.18,0.07,0.27,0.1l0.04,0.02 c0.07,0.02,0.13,0.05,0.2,0.08l0.14,0.05l0.15,0.06c0.07,0.03,0.15,0.06,0.22,0.08l0.12,0.04l0.19,0.07 c0.07,0.03,0.15,0.06,0.22,0.08c0.1,0.04,0.2,0.07,0.3,0.11l0.03,0.01c0.07,0.03,0.14,0.05,0.21,0.08 c0.14,0.05,0.29,0.11,0.44,0.16l0.12,0.04c0.11,0.04,0.21,0.08,0.32,0.12c0.21,0.08,0.42,0.16,0.64,0.24 c0.08,0.03,0.15,0.06,0.23,0.08c0.11,0.04,0.22,0.08,0.33,0.12c0.1,0.04,0.2,0.07,0.3,0.11c0.21,0.08,0.41,0.15,0.62,0.23 c0.01,0,0.02,0.01,0.04,0.01l0.01,0c0.44,0.16,0.88,0.33,1.33,0.51c0.38-0.59,0.75-1.27,1.11-1.99c-2.95-0.46-8.3-1.16-9.5-1.32 C8.31,38.73,8.23,38.72,8.15,38.7"></path> <path class="st7" d="M32.58,53.5c-0.02,0.03-0.04,0.06-0.05,0.08c0.01-0.01,0.01-0.02,0.02-0.03 C32.56,53.54,32.57,53.52,32.58,53.5 M32.51,53.61C32.51,53.61,32.51,53.61,32.51,53.61C32.51,53.61,32.51,53.61,32.51,53.61 M32.4,53.79L32.4,53.79C32.4,53.79,32.4,53.79,32.4,53.79 M32.36,53.84 M32.27,53.99C32.27,53.99,32.27,53.99,32.27,53.99 C32.27,53.99,32.27,53.99,32.27,53.99 M32.25,54.02C32.25,54.02,32.25,54.02,32.25,54.02C32.25,54.02,32.25,54.02,32.25,54.02 M32.23,54.04c0,0,0,0.01-0.01,0.01C32.23,54.05,32.23,54.04,32.23,54.04 M32.21,54.07c0,0.01-0.01,0.01-0.01,0.01 C32.21,54.08,32.21,54.08,32.21,54.07 M32.2,54.1c-0.02,0.04-0.05,0.07-0.07,0.11C32.15,54.17,32.17,54.13,32.2,54.1 M32.13,54.21 c-0.46,0.72-0.91,1.44-1.35,2.16l0-0.01c0.05-0.08,0.1-0.16,0.15-0.24C31.32,55.49,31.72,54.85,32.13,54.21 M30.78,56.37 C30.78,56.37,30.77,56.37,30.78,56.37L30.78,56.37L30.78,56.37z M24.88,64.34L24.88,64.34c-0.3,0.74-0.74,1.4-1.32,1.91v0 C24.14,65.74,24.57,65.08,24.88,64.34 M24.81,65.1c-0.1,0.1-0.19,0.2-0.29,0.29c0.06-0.06,0.11-0.11,0.17-0.17 C24.73,65.17,24.77,65.14,24.81,65.1"></path> <path class="st12" d="M31.32,51.21c-1.43,2.84-5.14,10.87-6.44,13.13c-0.3,0.74-0.74,1.4-1.32,1.91c0.32-0.26,0.65-0.54,0.97-0.86 c0.1-0.1,0.19-0.19,0.29-0.29c0.15-0.16,0.3-0.32,0.44-0.49c0.17-0.19,0.33-0.39,0.5-0.6l0.15-0.19c0.06-0.07,0.12-0.15,0.18-0.23 c0.06-0.08,0.12-0.16,0.19-0.24c0.05-0.06,0.1-0.13,0.15-0.19c0.32-0.44,0.65-0.9,0.97-1.38l0.01-0.01 c0.05-0.07,0.1-0.15,0.15-0.22c0.07-0.1,0.14-0.21,0.21-0.31c0.05-0.08,0.11-0.16,0.16-0.24c0.05-0.07,0.1-0.15,0.14-0.22 c0.35-0.54,0.69-1.09,1.05-1.66c0.26-0.42,0.53-0.85,0.79-1.29l0.02-0.03v0l0.02-0.03l0,0l0.01-0.01c0.28-0.46,0.56-0.92,0.84-1.38 h0c0,0,0,0,0,0v0c0.44-0.72,0.89-1.44,1.35-2.16c0,0,0,0,0,0c0.02-0.04,0.05-0.07,0.07-0.11c0,0,0-0.01,0.01-0.01 c0,0,0.01-0.01,0.01-0.01c0-0.01,0.01-0.01,0.01-0.02c0,0,0.01-0.01,0.01-0.01c0-0.01,0.01-0.01,0.01-0.02c0,0,0,0,0-0.01 c0.01-0.01,0.01-0.02,0.02-0.03c0,0,0,0,0,0c0.03-0.05,0.06-0.1,0.09-0.14c0.01-0.02,0.02-0.04,0.04-0.06h0 c0.04-0.06,0.07-0.12,0.11-0.17l0,0c0.01-0.01,0.01-0.02,0.02-0.03c0.02-0.03,0.04-0.06,0.06-0.08c0.07-0.1,0.13-0.2,0.2-0.3 c-0.11-0.17-0.22-0.34-0.33-0.51c-0.08-0.11-0.16-0.23-0.24-0.34l-0.11-0.16c-0.11-0.15-0.22-0.3-0.34-0.45l-0.03-0.04 C31.59,51.54,31.46,51.37,31.32,51.21"></path> <path class="st13" d="M32.78,53.2c-0.07,0.1-0.13,0.2-0.2,0.3c-0.01,0.02-0.02,0.03-0.03,0.05C32.63,53.43,32.7,53.32,32.78,53.2 M32.53,53.58c-0.01,0.01-0.01,0.02-0.02,0.03c0,0,0,0,0,0c-0.04,0.06-0.07,0.12-0.11,0.17c-0.01,0.02-0.02,0.04-0.04,0.06h0 c-0.03,0.05-0.06,0.1-0.09,0.15c0,0,0,0,0,0c-0.01,0.01-0.01,0.02-0.02,0.03c0,0,0,0,0,0.01c0,0.01-0.01,0.01-0.01,0.02 c0,0-0.01,0.01-0.01,0.01c-0.01,0.01-0.01,0.01-0.01,0.02c0,0.01-0.01,0.01-0.01,0.01c0,0.01,0,0.01-0.01,0.01 c-0.02,0.04-0.05,0.07-0.07,0.11c0,0,0,0,0,0c-0.41,0.64-0.81,1.28-1.2,1.92c0.2-0.32,0.39-0.64,0.59-0.96h0v0h0v0 c0.07-0.11,0.13-0.21,0.2-0.32h0C31.99,54.42,32.26,54,32.53,53.58"></path> <path class="st1" d="M50.06,38.08c-0.01,0-0.01,0-0.02,0C50.04,38.08,50.05,38.08,50.06,38.08"></path> <path class="st14" d="M50.06,38.08L50.06,38.08c0.69,0.93,1.54,1.98,2.45,3.12c-0.21-0.27-0.42-0.53-0.63-0.78 c-0.33-0.42-0.65-0.82-0.96-1.21C50.62,38.81,50.33,38.43,50.06,38.08"></path> <polyline class="st1" points="50.02,38.08 50.02,38.08 50.02,38.08 "></polyline> <path class="st14" d="M56.99,47.16c0,0,0.01,0.01,0.01,0.01C57,47.17,57,47.17,56.99,47.16C57,47.16,57,47.16,56.99,47.16"></path> <path class="st1" d="M58.19,49.96c0.01,0.01,0.01,0.02,0.02,0.02c0.1,0.09,0.19,0.19,0.29,0.29l0.03,0.03 c0.1,0.11,0.19,0.21,0.28,0.33h0l0.08,0.11c0.07,0.08,0.13,0.17,0.2,0.26c0.08,0.11,0.16,0.22,0.23,0.34h0l0.01,0.01 C59,50.83,58.62,50.36,58.19,49.96 M59,50.54c0.09,0.19,0.19,0.38,0.28,0.57C59.19,50.92,59.09,50.73,59,50.54z"></path> <polyline class="st14" points="59,50.53 59,50.53 59,50.53 59,50.53 "></polyline> <path class="st2" d="M50.06,38.08L50.06,38.08c-0.01,0-0.01,0-0.02,0c-0.01,0-0.01,0-0.02,0c0,0,0,0-0.01,0 c-0.86,0.08-1.68,0.25-2.48,0.5c2.61,2.74,8.44,8.78,10.65,11.38c0.43,0.4,0.82,0.87,1.14,1.4l0.04,0.06l-0.03-0.17l-0.06-0.15 c-0.09-0.19-0.18-0.38-0.27-0.57c0,0,0,0,0,0v0c-0.03-0.07-0.07-0.14-0.11-0.21c-0.11-0.21-0.22-0.42-0.33-0.63 c-0.07-0.13-0.15-0.26-0.22-0.39c-0.09-0.15-0.17-0.3-0.26-0.45c-0.09-0.16-0.19-0.31-0.29-0.46c-0.08-0.13-0.15-0.25-0.23-0.38 c-0.09-0.14-0.18-0.27-0.27-0.41c-0.1-0.14-0.19-0.29-0.28-0.43c0,0-0.01-0.01-0.01-0.01c-0.08-0.12-0.16-0.24-0.24-0.35 c-0.11-0.16-0.22-0.32-0.33-0.48c-0.1-0.14-0.2-0.28-0.3-0.42c-0.1-0.14-0.2-0.28-0.3-0.42c-0.29-0.39-0.58-0.78-0.87-1.16 c-0.32-0.42-0.63-0.83-0.95-1.24c-0.41-0.52-0.82-1.04-1.21-1.54l-0.06-0.08c-0.07-0.09-0.15-0.18-0.22-0.27 C51.6,40.06,50.75,39,50.06,38.08"></path> <path class="st1" d="M25.29,12.44c-0.26,0.61-0.3,1.28-0.09,1.85c0,0,0-0.01,0-0.01c-0.1-0.27-0.14-0.56-0.13-0.85l0-0.07 l0.01-0.15l0.02-0.12l0.02-0.13l0.04-0.16l0.03-0.1C25.22,12.61,25.25,12.52,25.29,12.44 M22.6,22.68 C22.6,22.68,22.6,22.68,22.6,22.68C22.6,22.68,22.6,22.68,22.6,22.68 M22.61,22.69C22.61,22.69,22.61,22.69,22.61,22.69 C22.61,22.69,22.61,22.69,22.61,22.69 M22.62,22.69C22.62,22.69,22.62,22.69,22.62,22.69C22.62,22.69,22.62,22.69,22.62,22.69 M22.65,22.7 M22.67,22.71"></path> <path class="st15" d="M25.29,12.44c-0.9,1.91-1.86,6.1-2.71,10.24c0.01,0,0.01,0,0.01,0c0,0,0,0,0,0c0,0,0.01,0,0.01,0 c0,0,0,0,0.01,0c0,0,0.01,0,0.01,0c0,0,0,0,0,0c0.01,0,0.02,0.01,0.03,0.01c0.01,0,0.01,0,0.01,0.01c0.57,0.2,1.32,0.38,2.12,0.5 c0.11-2.46,0.32-6.67,0.42-8.91C24.99,13.72,25.03,13.05,25.29,12.44"></path> </g> </svg> 